<svg xmlns="http://www.w3.org/2000/svg" viewBox="0 0 48 48">
  <path d="M14.5 6C9.8233445 6 6 9.8233481 6 14.5C6 19.176652 9.8233445 23 14.5 23C19.176656 23 23 19.176652 23 14.5C23 9.8233481 19.176656 6 14.5 6 z M 33.5 6C28.823344 6 25 9.8233481 25 14.5C25 19.176652 28.823344 23 33.5 23C38.176656 23 42 19.176652 42 14.5C42 9.8233481 38.176656 6 33.5 6 z M 14.5 9C17.555336 9 20 11.444666 20 14.5C20 17.555334 17.555336 20 14.5 20C11.444664 20 9 17.555334 9 14.5C9 11.444666 11.444664 9 14.5 9 z M 33.5 9C36.555336 9 39 11.444666 39 14.5C39 17.555334 36.555336 20 33.5 20C30.444664 20 28 17.555334 28 14.5C28 11.444666 30.444664 9 33.5 9 z M 33.5 25C28.823344 25 25 28.823348 25 33.5C25 38.176652 28.823344 42 33.5 42C38.176656 42 42 38.176652 42 33.5C42 28.823348 38.176656 25 33.5 25 z M 33.5 28C36.555336 28 39 30.444666 39 33.5C39 36.555334 36.555336 39 33.5 39C30.444664 39 28 36.555334 28 33.5C28 30.444666 30.444664 28 33.5 28 z" fill="#F9662E" />
</svg>