<svg xmlns="http://www.w3.org/2000/svg" viewBox="0 0 50 50">
  <path d="M33.001953 4.9941406 A 1.0001 1.0001 0 0 0 32.640625 5.0664062L6.640625 15.066406 A 1.0001 1.0001 0 0 0 6 16L6 37 A 1.0001 1.0001 0 1 0 8 37L8 16.6875L33.359375 6.9335938 A 1.0001 1.0001 0 0 0 33.001953 4.9941406 z M 38.001953 8.9941406 A 1.0001 1.0001 0 0 0 37.640625 9.0664062L11.640625 19.066406 A 1.0001 1.0001 0 0 0 11 20L11 41 A 1.0001 1.0001 0 1 0 13 41L13 20.6875L38.359375 10.933594 A 1.0001 1.0001 0 0 0 38.001953 8.9941406 z M 42.970703 13 A 1.0001 1.0001 0 0 0 42.640625 13.066406L16.640625 23.066406 A 1.0001 1.0001 0 0 0 16 24L16 46 A 1.0001 1.0001 0 0 0 17.359375 46.933594L43.359375 36.933594 A 1.0001 1.0001 0 0 0 44 36L44 14 A 1.0001 1.0001 0 0 0 42.970703 13 z M 42 15.457031L42 35.3125L18 44.542969L18 24.6875L42 15.457031 z" fill="#F9662E" />
</svg>