<svg xmlns="http://www.w3.org/2000/svg" viewBox="0 0 128 128">
  <path d="M24 1C11.32 1 1 11.32 1 24L1 104C1 116.68 11.32 127 24 127L104 127C116.68 127 127 116.68 127 104L127 24C127 11.32 116.68 1 104 1L24 1 z M 24 7L104 7C113.37 7 121 14.63 121 24L121 31L7 31L7 24C7 14.63 14.63 7 24 7 z M 26 16C24.34 16 23 17.34 23 19C23 20.66 24.34 22 26 22L36 22C37.66 22 39 20.66 39 19C39 17.34 37.66 16 36 16L26 16 z M 64 16C62.34 16 61 17.34 61 19C61 20.66 62.34 22 64 22L102 22C103.66 22 105 20.66 105 19C105 17.34 103.66 16 102 16L64 16 z M 7 37L121 37L121 104C121 113.37 113.37 121 104 121L24 121C14.63 121 7 113.37 7 104L7 37 z M 64 51C62.34 51 61 52.34 61 54L61 104C61 105.66 62.34 107 64 107C65.66 107 67 105.66 67 104L67 54C67 52.34 65.66 51 64 51 z M 84 61C82.34 61 81 62.34 81 64L81 104C81 105.66 82.34 107 84 107C85.66 107 87 105.66 87 104L87 64C87 62.34 85.66 61 84 61 z M 44 81C42.34 81 41 82.34 41 84L41 104C41 105.66 42.34 107 44 107C45.66 107 47 105.66 47 104L47 84C47 82.34 45.66 81 44 81 z" fill="#1BB3F7" />
</svg>